<svg viewBox="0 0 500 500" xmlns="http://www.w3.org/2000/svg"><g fill="none" stroke-width="2"><path d="m461.67 124.03q.37 1.68 1.47 3.71 35.12 64.63 29.06 138.97" stroke="#fc4a2d"/><path d="m492.2 266.71q-42.74-42.64-84.84-84.82-3.9-3.9-6.5-5.78" stroke="#dd4e30"/><path d="m400.86 176.11-4.97-5.24" stroke="#7e2d20"/><path d="m395.89 170.87-75.3-75.28" stroke="#dd4e30"/><path d="m320.59 95.59q-4.45-5.22-9.13-7.03-7.55-2.93-14.91.27-3.85 1.68-9.76 7.65-22.72 22.98-42.81 42.93a.35.35 0 0 1 -.49 0q-14.53-14.62-25.96-25.87-6.98-6.88-15.71-6.12c-15.95 1.38-23.51 20.36-12.63 32.28q3.12 3.42 6.8 6.86.24.22.01.46-20.68 20.92-41.31 41.25-9.08 8.96-12.18 14.12-11.77 19.62-4.21 41.8.18.54-.21.96-3.5 3.8-7.42 7.58c-16.91 16.3-20.6 40.9-8.04 60.9 3.4 5.42 8.19 10.09 12.77 14.5a.43.43 0 0 1 0 .62q-20.37 20.31-40.57 40.6-6.06 6.08-5.92 13.91.17 9.61 8.45 16.35" stroke="#7e2d20"/><path d="m97.36 399.61 79.92 80.07" stroke="#dd4e30"/><path d="m177.28 479.68q-.88.06-1.17-.03-64.89-19.68-111.02-69-3.19-3.41-7.25-8.71-.24-.32-.64-.37-.33-.05-.58-.44-1.23-1.92-2.95-2.53" stroke="#fc4a2d"/><path d="m320.59 95.59q7.11 14.76-3.31 25.19-22.98 23-45.95 45.92a.48.48 0 0 0 0 .68l52.65 52.66a.64.63 44.7 0 0 .89 0q20.5-20.5 41.11-41.12 7.86-7.87 11.65-9.46 8.23-3.46 18.26 1.41" stroke="#5f2211"/><path d="m400.86 176.11q5.55 9.72 1.84 18.39-1.76 4.1-6.8 9.1-21.84 21.64-43.87 43.81-.32.32 0 .64 11.93 12.04 24.74 24.71 3.37 3.34 4.92 6.17c6.98 12.73-2.45 28.25-16.63 28.4-9.13.09-14.26-5.77-20.11-11.86q-.3-.31-.6-.01-20.99 20.75-39.9 39.94-9.75 9.91-14.69 13.02-19.79 12.45-42.86 4.58a.61.61 0 0 0 -.64.15q-4.33 4.33-8.5 8.5c-13.63 13.64-33.25 18.38-51.45 11.39-9.46-3.62-16.32-9.92-22.92-17.12a.38.38 0 0 0 -.55-.01q-18.18 18.08-39.42 39.43-4.09 4.11-7.91 5.7-8.26 3.42-18.15-1.43" stroke="#5f2211"/><path d="m251.17 147.25 12.36 12.36a.55.55 0 0 0 .78 0l46.36-46.37a9.48 9.26-45 0 0 .16-13.25l-.04-.04a9.48 9.26-45 0 0 -13.25.16l-46.37 46.36a.55.55 0 0 0 0 .78" stroke="#6a6a6c"/><path d="m371.3711 294.5421a9.21 9.21 0 0 0 0-13.0249l-161.4183-161.4183a9.21 9.21 0 0 0 -13.0249 0l-.099.099a9.21 9.21 0 0 0 0 13.0249l161.4183 161.4183a9.21 9.21 0 0 0 13.0249 0z" stroke="#1f2d2d"/><path d="m156.74 200.59c-15.17 15.17-15.02 38.87 0 53.92q39.11 39.19 79.87 79.92c14.67 14.65 38.49 15.98 53.68.87q24.06-23.93 46.95-46.94a.4.4 0 0 0 0-.57l-133.4-133.4q-.45-.44-.9 0-23.4 23.41-46.2 46.2" stroke="#7f6e21"/><path d="m391.53 193.76c3.87-3.88 3.38-9.86-.42-13.38-3.51-3.25-9.15-3.24-12.61.21q-24.46 24.45-46.51 46.5-.47.47 0 .94l12.46 12.46a.26.25 44.2 0 0 .37 0q23.17-23.13 46.71-46.73" stroke="#6a6a6c"/><path d="m132.76 265.51c-11.74 15.16-9.29 36.46 3.97 49.71q18.93 18.92 38.95 38.97c14.79 14.81 36.74 16.32 52.43 2.69q3.88-3.37 8.91-8.61a.37.37 0 0 0 -.05-.56q-3.98-2.81-7.32-6.14-39.09-39.05-80.74-80.79-2.86-2.87-5.09-6.11-.32-.46-.73-.08-7.03 6.65-10.33 10.92" stroke="#7a5c22"/><path d="m155.74 348.35-12.61-12.61a.36.36 0 0 0 -.51 0l-40.87 40.86a9.35 9.24-45 0 0 -.07 13.15l.05.05a9.35 9.24-45 0 0 13.15-.07l40.86-40.87a.36.36 0 0 0 0-.51" stroke="#1f2d2d"/><path d="m177.28 479.68q4.22 1.53 8.72 2.64c92.36 22.9 190.21-8.32 250.84-81.73q48.01-58.12 55.36-133.88" stroke="#dd3f1e"/></g><path d="m238.89 0h15.34q59.91 2.19 110.53 29.92 42.05 23.04 71.85 58.97 12.64 15.25 25.06 35.14.37 1.68 1.47 3.71 35.12 64.63 29.06 138.97-42.74-42.64-84.84-84.82-3.9-3.9-6.5-5.78l-4.97-5.24-75.3-75.28q-4.45-5.22-9.13-7.03-7.55-2.93-14.91.27-3.85 1.68-9.76 7.65-22.72 22.98-42.81 42.93a.35.35 0 0 1 -.49 0q-14.53-14.62-25.96-25.87-6.98-6.88-15.71-6.12c-15.95 1.38-23.51 20.36-12.63 32.28q3.12 3.42 6.8 6.86.24.22.01.46-20.68 20.92-41.31 41.25-9.08 8.96-12.18 14.12-11.77 19.62-4.21 41.8.18.54-.21.96-3.5 3.8-7.42 7.58c-16.91 16.3-20.6 40.9-8.04 60.9 3.4 5.42 8.19 10.09 12.77 14.5a.43.43 0 0 1 0 .62q-20.37 20.31-40.57 40.6-6.06 6.08-5.92 13.91.17 9.61 8.45 16.35l79.92 80.07q-.88.06-1.17-.03-64.89-19.68-111.02-69-3.19-3.41-7.25-8.71-.24-.32-.64-.37-.33-.05-.58-.44-1.23-1.92-2.95-2.53-14.81-20.27-24.55-38.22-27.01-49.8-29.12-108.03v-15.11q3.54-83.96 56.03-147.74 30.1-36.56 73.03-59.91 50.34-27.37 109.83-29.59z" fill="#fc593f"/><path d="m320.59 95.59q7.11 14.76-3.31 25.19-22.98 23-45.95 45.92a.48.48 0 0 0 0 .68l52.65 52.66a.64.63 44.7 0 0 .89 0q20.5-20.5 41.11-41.12 7.86-7.87 11.65-9.46 8.23-3.46 18.26 1.41l4.97 5.24q5.55 9.72 1.84 18.39-1.76 4.1-6.8 9.1-21.84 21.64-43.87 43.81-.32.32 0 .64 11.93 12.04 24.74 24.71 3.37 3.34 4.92 6.17c6.98 12.73-2.45 28.25-16.63 28.4-9.13.09-14.26-5.77-20.11-11.86q-.3-.31-.6-.01-20.99 20.75-39.9 39.94-9.75 9.91-14.69 13.02-19.79 12.45-42.86 4.58a.61.61 0 0 0 -.64.15q-4.33 4.33-8.5 8.5c-13.63 13.64-33.25 18.38-51.45 11.39-9.46-3.62-16.32-9.92-22.92-17.12a.38.38 0 0 0 -.55-.01q-18.18 18.08-39.42 39.43-4.09 4.11-7.91 5.7-8.26 3.42-18.15-1.43-8.28-6.74-8.45-16.35-.14-7.83 5.92-13.91 20.2-20.29 40.57-40.6a.43.43 0 0 0 0-.62c-4.58-4.41-9.37-9.08-12.77-14.5-12.56-20-8.87-44.6 8.04-60.9q3.92-3.78 7.42-7.58.39-.42.21-.96-7.56-22.18 4.21-41.8 3.1-5.16 12.18-14.12 20.63-20.33 41.31-41.25.23-.24-.01-.46-3.68-3.44-6.8-6.86c-10.88-11.92-3.32-30.9 12.63-32.28q8.73-.76 15.71 6.12 11.43 11.25 25.96 25.87a.35.35 0 0 0 .49 0q20.09-19.95 42.81-42.93 5.91-5.97 9.76-7.65 7.36-3.2 14.91-.27 4.68 1.81 9.13 7.03zm-69.42 51.66 12.36 12.36a.55.55 0 0 0 .78 0l46.36-46.37a9.48 9.26-45 0 0 .16-13.25l-.04-.04a9.48 9.26-45 0 0 -13.25.16l-46.37 46.36a.55.55 0 0 0 0 .78zm120.2011 147.2921a9.21 9.21 0 0 0 0-13.0249l-161.4183-161.4183a9.21 9.21 0 0 0 -13.0249 0l-.099.099a9.21 9.21 0 0 0 0 13.0249l161.4183 161.4183a9.21 9.21 0 0 0 13.0249 0zm-214.6311-93.9521c-15.17 15.17-15.02 38.87 0 53.92q39.11 39.19 79.87 79.92c14.67 14.65 38.49 15.98 53.68.87q24.06-23.93 46.95-46.94a.4.4 0 0 0 0-.57l-133.4-133.4q-.45-.44-.9 0-23.4 23.41-46.2 46.2zm234.79-6.83c3.87-3.88 3.38-9.86-.42-13.38-3.51-3.25-9.15-3.24-12.61.21q-24.46 24.45-46.51 46.5-.47.47 0 .94l12.46 12.46a.26.25 44.2 0 0 .37 0q23.17-23.13 46.71-46.73zm-258.77 71.75c-11.74 15.16-9.29 36.46 3.97 49.71q18.93 18.92 38.95 38.97c14.79 14.81 36.74 16.32 52.43 2.69q3.88-3.37 8.91-8.61a.37.37 0 0 0 -.05-.56q-3.98-2.81-7.32-6.14-39.09-39.05-80.74-80.79-2.86-2.87-5.09-6.11-.32-.46-.73-.08-7.03 6.65-10.33 10.92zm22.98 82.84-12.61-12.61a.36.36 0 0 0 -.51 0l-40.87 40.86a9.35 9.24-45 0 0 -.07 13.15l.05.05a9.35 9.24-45 0 0 13.15-.07l40.86-40.87a.36.36 0 0 0 0-.51z"/><path d="m320.59 95.59 75.3 75.28q-10.03-4.87-18.26-1.41-3.79 1.59-11.65 9.46-20.61 20.62-41.11 41.12a.64.63 44.7 0 1 -.89 0l-52.65-52.66a.48.48 0 0 1 0-.68q22.97-22.92 45.95-45.92 10.42-10.43 3.31-25.19z" fill="#be4321"/><path d="m251.17 147.25a.55.55 0 0 1 0-.78l46.37-46.36a9.48 9.26-45 0 1 13.25-.16l.04.04a9.48 9.26-45 0 1 -.16 13.25l-46.36 46.37a.55.55 0 0 1 -.78 0z" fill="#d3d3d8"/><rect fill="#3e5959" height="18.56" rx="9.21" transform="matrix(.70710678 .70710678 -.70710678 .70710678 284.1 207.37)" width="246.7" x="-123.35" y="-9.28"/><path d="m461.67 124.03q35.8 56.46 38.33 123.86v14.59q-2 54.79-25.8 101.71-21.54 42.46-55.56 72.69-66.75 59.32-157.76 63.12h-15.11q-46.58-1.73-88.03-19.18-63.01-26.52-104.07-82.22 1.72.61 2.95 2.53.25.39.58.44.4.05.64.37 4.06 5.3 7.25 8.71 46.13 49.32 111.02 69 .29.09 1.17.03 4.22 1.53 8.72 2.64c92.36 22.9 190.21-8.32 250.84-81.73q48.01-58.12 55.36-133.88 6.06-74.34-29.06-138.97-1.1-2.03-1.47-3.71z" fill="#fb3b1b"/><path d="m156.74 254.51c-15.02-15.05-15.17-38.75 0-53.92q22.8-22.79 46.2-46.2.45-.44.9 0l133.4 133.4a.4.4 0 0 1 0 .57q-22.89 23.01-46.95 46.94c-15.19 15.11-39.01 13.78-53.68-.87q-40.76-40.73-79.87-79.92z" fill="#fedb41"/><path d="m400.86 176.11q2.6 1.88 6.5 5.78 42.1 42.18 84.84 84.82-7.35 75.76-55.36 133.88c-60.63 73.41-158.48 104.63-250.84 81.73q-4.5-1.11-8.72-2.64l-79.92-80.07q9.89 4.85 18.15 1.43 3.82-1.59 7.91-5.7 21.24-21.35 39.42-39.43a.38.38 0 0 1 .55.01c6.6 7.2 13.46 13.5 22.92 17.12 18.2 6.99 37.82 2.25 51.45-11.39q4.17-4.17 8.5-8.5a.61.61 0 0 1 .64-.15q23.07 7.87 42.86-4.58 4.94-3.11 14.69-13.02 18.91-19.19 39.9-39.94.3-.3.6.01c5.85 6.09 10.98 11.95 20.11 11.86 14.18-.15 23.61-15.67 16.63-28.4q-1.55-2.83-4.92-6.17-12.81-12.67-24.74-24.71-.32-.32 0-.64 22.03-22.17 43.87-43.81 5.04-5 6.8-9.1 3.71-8.67-1.84-18.39z" fill="#be4321"/><path d="m391.11 180.38c3.8 3.52 4.29 9.5.42 13.38q-23.54 23.6-46.71 46.73a.26.25 44.2 0 1 -.37 0l-12.46-12.46q-.47-.47 0-.94 22.05-22.05 46.51-46.5c3.46-3.45 9.1-3.46 12.61-.21z" fill="#d3d3d8"/><path d="m136.73 315.22c-13.26-13.25-15.71-34.55-3.97-49.71q3.3-4.27 10.33-10.92.41-.38.73.08 2.23 3.24 5.09 6.11 41.65 41.74 80.74 80.79 3.34 3.33 7.32 6.14a.37.37 0 0 1 .05.56q-5.03 5.24-8.91 8.61c-15.69 13.63-37.64 12.12-52.43-2.69q-20.02-20.05-38.95-38.97z" fill="#f4b844"/><path d="m155.74 348.35a.36.36 0 0 1 0 .51l-40.86 40.87a9.35 9.24-45 0 1 -13.15.07l-.05-.05a9.35 9.24-45 0 1 .07-13.15l40.87-40.86a.36.36 0 0 1 .51 0z" fill="#3e5959"/></svg>